<?xml version="1.0" standalone="no"?>
<!DOCTYPE svg PUBLIC "-//W3C//DTD SVG 20010904//EN"
 "http://www.w3.org/TR/2001/REC-SVG-20010904/DTD/svg10.dtd">
<svg version="1.0" xmlns="http://www.w3.org/2000/svg"
 width="1077.000000pt" height="999.000000pt" viewBox="0 0 1077.000000 999.000000"
 preserveAspectRatio="xMidYMid meet">

<g transform="translate(0.000000,999.000000) scale(0.100000,-0.100000)"
fill="#000000" stroke="none">
<path d="M4618 9292 c-367 -147 -742 -297 -835 -334 -92 -37 -220 -88 -283
-113 -904 -365 -1032 -415 -1055 -415 -18 0 -20 -16 -2 -23 88 -34 539 -218
560 -227 l27 -13 0 -252 0 -252 -40 -32 c-74 -59 -96 -137 -61 -217 12 -27 33
-60 46 -74 l25 -26 -25 -114 c-14 -63 -34 -151 -45 -195 -42 -171 -70 -297
-70 -315 0 -23 7 -28 72 -45 122 -34 288 -29 389 12 32 12 39 20 39 43 0 25
-86 405 -125 554 l-16 59 29 31 c47 49 65 93 60 145 -6 65 -35 119 -79 150
l-38 26 -1 218 c0 135 4 217 10 217 11 0 123 -41 173 -64 28 -13 263 -109 355
-146 l33 -13 -3 -238 c-2 -157 0 -238 7 -235 361 154 593 222 970 285 340 57
797 55 1165 -5 179 -30 461 -98 605 -147 128 -44 305 -114 322 -129 11 -9 13
32 13 230 l0 240 178 70 c97 39 260 105 362 147 102 42 219 89 260 105 41 16
149 58 240 95 91 37 193 78 228 92 35 14 60 29 55 33 -4 4 -46 22 -93 39 -47
18 -184 72 -305 121 -121 49 -355 142 -520 208 -165 66 -408 163 -540 217
-132 53 -305 121 -385 152 -121 46 -256 100 -355 143 -11 4 -63 25 -115 45
-52 20 -126 49 -165 65 -163 67 -248 100 -257 100 -5 0 -34 11 -64 25 -30 14
-60 25 -67 24 -7 0 -312 -120 -679 -267z m1017 -727 c152 -15 385 -55 506 -85
155 -40 366 -118 456 -168 l62 -35 3 -84 c2 -46 2 -83 0 -83 -1 0 -38 18 -81
40 -371 189 -1034 304 -1501 260 -474 -44 -783 -121 -1082 -271 l-58 -29 0 65
c0 99 6 107 115 159 233 111 611 206 933 235 156 14 495 12 647 -4z"/>
<path d="M5015 7560 c-252 -18 -462 -54 -700 -121 -195 -56 -375 -119 -375
-134 0 -3 613 -5 1362 -5 835 0 1358 4 1353 9 -25 24 -277 112 -445 155 -123
31 -366 73 -505 86 -156 15 -536 20 -690 10z"/>
<path d="M3755 7060 c0 -107 1 -110 22 -110 13 0 41 -16 63 -36 l40 -36 0
-885 c0 -995 0 -992 72 -1208 138 -416 434 -732 1035 -1104 92 -57 185 -115
206 -128 l37 -23 0 -675 0 -674 -522 -3 -523 -4 -90 -27 c-285 -89 -478 -280
-570 -567 -40 -124 -47 -309 -15 -435 74 -299 295 -532 585 -616 68 -20 102
-24 225 -24 172 1 227 13 378 86 91 44 115 62 195 142 51 51 100 104 110 120
l18 27 278 0 279 0 57 -70 c109 -135 270 -241 435 -287 101 -27 330 -25 433 5
237 68 447 248 537 460 58 136 73 220 68 377 -5 122 -9 152 -36 235 -73 223
-215 386 -427 490 -171 85 -159 83 -750 87 l-520 4 3 142 c1 78 7 178 13 222
18 138 100 294 218 418 98 104 80 93 1106 664 143 80 280 160 305 178 110 81
166 222 155 392 l-5 73 40 20 c54 28 117 92 141 143 26 58 25 158 -2 217 -45
99 -137 160 -241 160 -143 -1 -253 -100 -265 -242 -11 -112 35 -202 132 -260
l56 -33 -3 -106 c-3 -94 -6 -112 -33 -165 -23 -45 -43 -67 -85 -96 -58 -38
-436 -248 -448 -248 -4 0 -7 163 -7 363 l0 362 66 110 c74 124 116 222 153
357 20 76 56 259 56 291 0 4 157 7 349 7 l349 0 30 -53 c34 -61 72 -96 131
-123 l40 -19 1 -577 0 -576 -37 -13 c-20 -6 -58 -33 -83 -58 -57 -57 -83 -125
-79 -206 l3 -56 -235 -127 c-238 -130 -441 -244 -537 -301 -29 -17 -55 -31
-58 -31 -3 0 -15 10 -27 21 -12 12 -46 33 -76 47 -44 20 -64 24 -115 20 -176
-15 -293 -170 -251 -333 36 -135 141 -212 278 -203 149 10 243 112 251 270 l3
53 79 43 c74 41 452 250 663 368 l94 52 36 -23 c20 -14 56 -31 80 -40 126 -44
268 22 329 154 20 44 24 63 19 113 -10 110 -71 200 -159 235 l-38 15 0 574 0
574 55 31 c161 91 192 281 69 418 -52 58 -126 91 -203 91 -95 0 -227 -94 -247
-177 l-6 -23 -354 0 -354 0 0 305 0 305 -556 0 -557 0 -67 64 c-47 44 -83 69
-116 80 -180 59 -349 -3 -432 -159 -24 -45 -27 -61 -27 -150 0 -90 3 -105 28
-153 64 -122 155 -182 287 -190 108 -6 175 21 259 104 l64 64 386 0 386 0 -2
-207 c-2 -278 -25 -410 -99 -572 -80 -173 -258 -384 -467 -553 -93 -74 -366
-262 -469 -322 l-47 -28 -93 58 c-343 212 -597 422 -742 613 -90 121 -178 294
-213 426 l-28 100 -3 906 -3 905 27 27 c46 46 94 48 147 5 l27 -23 3 -905 c3
-893 3 -906 25 -983 28 -102 90 -232 149 -315 109 -154 379 -386 615 -530 l87
-53 33 17 c119 61 384 258 501 373 158 154 224 245 284 391 47 114 63 202 63
344 l0 126 -170 0 -170 0 0 -106 c0 -227 -75 -377 -276 -554 -85 -74 -244
-190 -262 -190 -23 0 -244 171 -327 254 -122 121 -183 238 -204 391 -7 51 -11
357 -11 893 1 916 -5 844 80 887 38 19 59 23 116 21 75 -3 103 -14 147 -54
l27 -26 0 -311 c0 -172 2 -314 4 -316 2 -2 79 -3 170 -1 l166 3 0 308 c0 298
1 309 21 335 69 88 258 89 327 1 22 -27 22 -35 22 -336 l0 -309 173 0 172 0 0
319 0 320 29 30 c37 38 79 41 127 8 l34 -23 3 -327 2 -327 175 0 175 0 0 316
0 316 34 34 c19 19 43 34 55 34 19 0 21 6 22 73 0 39 2 89 4 110 l4 37 -1547
0 -1547 0 0 -110z m2555 -3169 l0 -319 -47 -30 c-27 -17 -127 -74 -223 -127
-242 -134 -327 -184 -385 -224 -91 -63 -191 -159 -231 -220 -21 -33 -42 -60
-47 -61 -4 0 -6 140 -5 311 l3 312 168 101 c285 172 514 340 682 499 44 42 81
76 82 77 1 0 2 -143 3 -319z m59 -2051 c90 -63 92 -200 4 -267 -32 -24 -45
-28 -104 -28 -61 0 -71 3 -100 30 -87 83 -78 206 21 273 46 31 130 28 179 -8z
m-1909 -30 c18 -18 20 -33 20 -165 l0 -145 143 0 c188 0 181 5 185 -142 3
-100 1 -117 -16 -137 -20 -26 -36 -28 -224 -30 l-88 -1 0 -142 c0 -79 -4 -148
-8 -154 -17 -26 -56 -35 -147 -33 -144 2 -144 2 -147 187 l-3 147 -144 1
c-184 2 -181 -1 -181 153 0 58 4 111 8 117 18 27 56 34 186 34 l136 0 0 147
c0 190 -5 183 147 183 100 0 115 -2 133 -20z m1533 -318 c71 -47 100 -129 72
-200 -50 -123 -208 -150 -289 -49 -27 34 -31 46 -31 101 0 72 28 124 80 150
43 21 133 20 168 -2z m727 3 c46 -24 82 -79 88 -134 10 -110 -81 -193 -196
-176 -63 9 -126 71 -137 132 -11 67 38 158 100 183 33 14 114 11 145 -5z
m-407 -346 c83 -23 134 -99 124 -186 -9 -83 -66 -135 -154 -141 -49 -3 -64 0
-93 20 -19 13 -45 39 -58 58 -20 29 -23 45 -20 95 5 74 25 106 92 140 57 28
58 29 109 14z"/>
<path d="M2373 6158 c-24 -90 -74 -284 -113 -433 -38 -148 -93 -355 -121 -460
-28 -104 -88 -334 -134 -510 -98 -374 -186 -709 -215 -815 -11 -41 -43 -163
-71 -270 -27 -107 -81 -312 -119 -455 -38 -143 -80 -305 -94 -360 -14 -55 -28
-109 -32 -121 -5 -20 -2 -21 128 -28 537 -28 1062 -148 1563 -358 114 -48 356
-167 456 -224 l47 -26 105 71 c58 39 119 76 136 82 17 6 31 15 31 19 0 8 -158
101 -300 177 -77 41 -354 169 -472 217 -76 31 -72 20 -43 146 7 30 37 165 66
300 29 135 54 246 55 248 1 2 82 -27 180 -64 195 -73 417 -170 605 -265 l121
-60 -7 -52 c-41 -331 -74 -564 -82 -591 -4 -15 -2 -18 13 -12 11 5 46 13 80
19 l60 10 34 266 c18 146 36 269 39 273 8 9 287 -163 432 -266 61 -43 161
-118 222 -167 l112 -88 3 86 c2 71 0 89 -15 106 -51 57 -391 292 -603 417 -69
41 -127 75 -129 77 -2 1 1 37 7 80 6 43 23 179 38 303 15 124 29 227 30 228 1
2 80 -48 176 -110 145 -96 305 -215 477 -355 26 -21 33 -23 28 -9 -4 10 -7 52
-8 94 l0 77 -62 53 c-78 67 -306 229 -432 307 -166 104 -157 96 -160 138 -1
21 -6 41 -11 46 -5 4 -32 26 -61 50 l-52 42 -7 -50 -7 -51 -171 89 c-140 73
-302 146 -623 281 -28 11 -27 6 -4 105 11 44 40 175 66 290 26 116 48 211 49
213 4 3 112 -43 147 -63 14 -8 28 -12 31 -10 3 3 -6 45 -20 93 l-25 88 -48 18
c-35 12 -49 22 -49 36 0 10 18 93 40 185 l40 167 0 279 0 279 -39 20 c-190 96
-596 226 -951 304 -86 19 -281 56 -294 56 0 0 -20 -73 -43 -162z m372 -197
c247 -56 551 -154 743 -239 62 -27 115 -52 118 -55 5 -5 -5 -51 -76 -366 -28
-124 -53 -227 -55 -229 -3 -3 -58 16 -122 41 -184 71 -589 187 -813 232 -70
15 -70 15 -45 107 12 46 37 139 55 208 81 316 82 320 99 320 9 0 52 -9 96 -19z
m-156 -772 c334 -76 851 -243 851 -274 0 -30 -126 -585 -135 -594 -3 -2 -47
10 -97 26 -256 86 -555 162 -798 204 -69 12 -129 25 -133 29 -9 8 16 119 88
390 24 91 49 184 55 208 6 23 16 42 22 42 5 0 72 -14 147 -31z m-174 -785
c188 -36 435 -97 625 -155 220 -67 230 -71 230 -87 0 -18 -130 -605 -135 -610
-2 -2 -52 10 -112 26 -302 85 -515 133 -788 177 -93 15 -171 29 -173 30 -2 2
20 92 48 202 28 109 65 252 82 318 16 66 32 123 34 126 4 7 16 6 189 -27z
m1158 -340 c168 -67 373 -163 550 -259 l128 -69 -5 -45 c-22 -173 -49 -381
-61 -462 -8 -53 -15 -99 -15 -103 0 -3 -62 25 -137 62 -171 85 -334 155 -568
243 l-180 68 3 37 c2 20 28 145 58 278 30 132 58 256 61 274 3 17 10 32 15 32
5 0 73 -25 151 -56z m-1306 -459 c339 -58 833 -183 833 -211 0 -20 -138 -644
-144 -651 -1 -1 -24 5 -51 13 -324 100 -622 166 -909 203 -81 11 -150 21 -151
23 -3 3 90 358 140 530 14 48 25 96 25 107 0 28 11 28 257 -14z"/>
<path d="M8110 6305 c-99 -17 -341 -70 -460 -101 -237 -63 -389 -114 -647
-219 l-93 -37 0 -158 0 -159 87 41 c144 66 323 135 478 183 188 58 470 129
488 122 8 -3 22 -34 31 -69 9 -34 34 -128 55 -208 86 -322 186 -701 261 -990
44 -168 104 -397 135 -510 30 -113 89 -335 130 -495 41 -159 98 -375 125 -480
28 -104 53 -204 56 -220 l6 -31 -119 -13 c-386 -42 -921 -181 -1303 -338 -211
-87 -670 -329 -670 -353 0 -5 20 -18 44 -28 35 -16 136 -81 211 -136 9 -7 35
3 81 31 386 228 1036 449 1538 523 163 24 435 50 522 50 33 0 63 3 66 6 4 3
-2 36 -12 72 -10 37 -43 164 -74 282 -97 372 -222 849 -264 1005 -57 212 -101
378 -187 710 -42 159 -96 364 -120 455 -48 178 -141 533 -226 860 -29 113 -55
208 -58 211 -3 3 -40 0 -81 -6z"/>
<path d="M1800 5809 c-6 -24 -15 -55 -20 -69 -8 -23 -33 -112 -111 -405 -17
-60 -48 -173 -69 -250 -116 -413 -234 -832 -260 -920 -16 -55 -50 -174 -75
-265 -44 -156 -82 -293 -211 -750 -31 -107 -75 -265 -99 -350 -24 -85 -100
-354 -169 -598 -70 -243 -126 -444 -126 -446 0 -2 119 -1 264 2 330 6 714 -19
1021 -68 359 -57 988 -243 1272 -375 53 -25 99 -45 103 -45 4 0 5 11 3 24 -4
21 11 190 23 262 6 31 4 33 -61 63 -99 47 -248 106 -440 173 -521 182 -1114
288 -1611 288 -70 0 -114 4 -114 10 0 12 38 152 42 154 12 7 484 -16 603 -29
530 -58 1035 -196 1514 -414 l127 -58 48 83 c27 46 57 92 67 103 11 11 19 24
19 29 0 19 -311 167 -514 243 -44 17 -119 46 -166 64 -378 146 -1034 265
-1467 265 -116 0 -153 3 -153 13 1 17 4 32 125 487 60 223 125 470 146 550 20
80 89 339 152 575 142 529 251 941 282 1060 13 50 50 191 83 315 77 287 79
297 55 303 -10 3 -75 9 -145 13 l-127 6 -11 -43z"/>
<path d="M8585 5841 c-63 -5 -80 -9 -79 -21 1 -17 60 -241 164 -630 38 -140
121 -453 185 -695 64 -242 138 -521 165 -620 47 -177 169 -634 289 -1091 34
-127 61 -236 61 -242 0 -9 -41 -12 -147 -12 -383 0 -905 -86 -1348 -222 -228
-70 -805 -319 -805 -347 0 -6 15 -32 34 -58 18 -27 44 -68 56 -93 37 -74 30
-73 153 -15 550 260 1176 410 1857 444 96 5 199 6 227 4 52 -5 53 -6 63 -47 6
-22 15 -54 20 -70 6 -16 10 -33 10 -37 0 -5 -51 -9 -112 -9 -490 0 -1096 -109
-1633 -294 -154 -52 -465 -181 -481 -199 -9 -9 -9 -30 2 -87 7 -41 13 -110 14
-152 0 -43 2 -78 4 -78 2 0 50 21 107 46 428 188 1002 346 1449 398 311 36
395 41 746 41 l361 0 -13 45 c-7 25 -49 176 -93 335 -44 160 -92 331 -107 380
-14 50 -34 119 -44 155 -10 36 -38 137 -63 225 -25 88 -88 311 -141 495 -52
184 -123 434 -157 555 -34 121 -70 249 -81 285 -10 36 -36 130 -57 210 -22 80
-75 271 -119 425 -45 154 -121 426 -171 605 -49 179 -94 337 -100 353 -10 26
-13 27 -73 25 -35 -1 -99 -4 -143 -7z"/>
</g>
</svg>
